<svg id="ca7db6b3-49c7-4e6b-96dc-49ba86272b9d" data-name="Layer 1" xmlns="http://www.w3.org/2000/svg" viewBox="0 0 28 24"><defs><style></style></defs><path class="3be69246-bf4a-4d80-a628-05d0ee4fff9d" d="M28 8v13.334A2.666 2.666 0 0 1 25.333 24H8a2.666 2.666 0 0 1-2.667-2.666v-2.667H8v2.667h17.333V8H8v2.667H5.333V8A2.666 2.666 0 0 1 8 5.334h17.333A2.666 2.666 0 0 1 28 8zm-17.333 8v2.667l5.333-4-5.333-4v2.667h-8V2.667H20V0H2.667A2.666 2.666 0 0 0 0 2.667v10.667A2.667 2.667 0 0 0 2.667 16h8"/></svg>