<svg xmlns="http://www.w3.org/2000/svg" viewBox="0 0 24 24"><path d="M1 12a9 9 0 1 1 18 0 9 9 0 0 1-18 0zm7 5a2 2 0 1 0 4 0 2 2 0 0 0-4 0zm6.138-1.553a2 2 0 1 0 1.236-3.804 2 2 0 0 0-1.236 3.804zm.42-6.316A2 2 0 1 0 11.32 6.78a2 2 0 0 0 3.236 2.35zM8.68 6.78a2 2 0 1 0-3.236 2.35A2 2 0 0 0 8.68 6.78zm-4.053 4.863a2 2 0 1 0 1.236 3.804 2 2 0 0 0-1.236-3.804zm12.39-8.113C19.45 5.547 21 8.593 21 12s-1.55 6.453-3.983 8.47C20.502 19.23 23 15.91 23 12s-2.498-7.229-5.983-8.47z" fill="#fff"/><path fill="none" d="M24.001 24h-24V0h24z"/></svg>